<svg width="972" height="946" viewBox="0 0 972 946" fill="none" xmlns="http://www.w3.org/2000/svg">
<g clip-path="url(#clip0)">
<path d="M863.184 836.28C863.184 836.28 863.927 820.715 879.158 822.524L863.184 836.28Z" fill="#3F3D56"/>
<path d="M858.88 821.468C863.09 821.468 866.503 818.055 866.503 813.846C866.503 809.636 863.09 806.224 858.88 806.224C854.67 806.224 851.256 809.636 851.256 813.846C851.256 818.055 854.67 821.468 858.88 821.468Z" fill="#3CD887"/>
<path d="M859.791 826.68H857.639V841.74H859.791V826.68Z" fill="#3F3D56"/>
<path d="M345.651 378.679C345.651 382.491 345.528 386.27 345.281 390.018C343.896 411.634 338.434 432.793 329.183 452.379C329.111 452.546 329.027 452.701 328.956 452.857C328.525 453.765 328.083 454.673 327.629 455.569C324.878 461.108 321.826 466.493 318.486 471.7C303.233 495.6 282.326 515.376 257.614 529.281C232.901 543.185 205.143 550.789 176.793 551.422L178.503 649.688L200.791 637.954L204.771 645.518L178.67 659.259L181.861 841.764L181.897 844.201L164.663 848.037L164.699 845.587L170.124 551.434C147.305 551.106 124.779 546.25 103.852 537.147C82.9259 528.044 64.0167 514.875 48.2225 498.405C47.1354 497.282 46.0594 496.123 45.0078 494.976C44.9599 494.928 44.9243 494.88 44.8881 494.844C31.7288 480.497 21.0862 464.031 13.4089 446.141C13.5764 446.333 13.7555 446.512 13.923 446.703C-3.42792 406.137 -4.60471 360.472 10.6338 319.067C25.8723 277.661 56.3723 243.65 95.8837 224.003C96.4812 223.704 97.091 223.417 97.6886 223.118C136.773 204.297 181.503 200.843 223.014 213.442C264.525 226.042 299.786 253.774 321.809 291.143C322.861 292.911 323.877 294.715 324.857 296.531C338.536 321.75 345.685 349.99 345.651 378.679Z" fill="#E5E5E5"/>
<path d="M322.387 452.951C447.492 452.951 548.909 351.554 548.909 226.475C548.909 101.397 447.492 0 322.387 0C197.283 0 95.8655 101.397 95.8655 226.475C95.8655 351.554 197.283 452.951 322.387 452.951Z" fill="#3CD887"/>
<path opacity="0.2" d="M155.131 75.2076C105.95 190.227 159.342 323.329 274.384 372.5C318.031 391.155 366.437 395.632 412.766 385.297C459.095 374.962 501.007 350.338 532.583 314.903C483.408 429.925 350.28 483.313 235.234 434.147C120.187 384.982 66.7889 251.881 115.964 136.859C125.598 114.325 138.825 93.5043 155.131 75.2076Z" fill="black"/>
<path d="M334.645 857.393L311.507 850.905L311.555 848.419L318.487 471.7L318.833 452.916L318.845 452.367L320.052 386.553L321.809 291.155V291.143L323.004 226.476H323.638L324.857 296.531L326.446 387.712L327.582 452.415V452.893L327.629 455.557V455.569L329.828 581.688L330.055 594.222L334.597 854.884L334.645 857.393Z" fill="#3F3D56"/>
<path d="M359.037 566.311L321.592 586.021L326.81 595.931L364.255 576.221L359.037 566.311Z" fill="#3F3D56"/>
<path d="M317.949 902.985H211.14V905.374H317.949V902.985Z" fill="#CBCBCB"/>
<path d="M513.948 943.61H407.139V946H513.948V943.61Z" fill="#CBCBCB"/>
<path d="M818.703 912.544H711.893V914.933H818.703V912.544Z" fill="#CBCBCB"/>
<path d="M769.918 815.309V745.799C769.918 745.799 797.012 795.079 769.918 815.309Z" fill="#F1F1F1"/>
<path d="M771.592 815.297L720.376 768.289C720.376 768.289 775.009 781.661 771.592 815.297Z" fill="#F1F1F1"/>
<path d="M240.481 832.037V762.527C240.481 762.527 267.576 811.807 240.481 832.037Z" fill="#F1F1F1"/>
<path d="M242.155 832.025L190.939 785.018C190.939 785.018 245.572 798.389 242.155 832.025Z" fill="#F1F1F1"/>
<path d="M424.529 882.222V795.785C424.529 795.785 458.221 857.065 424.529 882.222Z" fill="#F1F1F1"/>
<path d="M426.61 882.207L362.923 823.752C362.923 823.752 430.86 840.379 426.61 882.207Z" fill="#F1F1F1"/>
<path d="M972 871.648L971.343 873.954L770.767 816.839L619.668 850.14L426.43 883.142L426.167 883.071L334.645 857.393L311.507 850.905L240.84 831.07L181.897 844.201L164.663 848.037L127.196 856.389L126.682 854.059L164.699 845.587L181.861 841.764L240.912 828.608L241.198 828.68L311.555 848.419L334.597 854.883L426.549 880.693L619.202 847.798L770.838 814.377L771.137 814.449L972 871.648Z" fill="#CBCBCB"/>
<path d="M613.156 145.102L628.447 132.874C616.568 131.564 611.687 138.041 609.69 143.168C600.409 139.315 590.306 144.364 590.306 144.364L620.902 155.469C619.358 151.347 616.671 147.751 613.156 145.102Z" fill="#3F3D56"/>
<path d="M51.4512 140.322L66.7426 128.094C54.8634 126.784 49.9825 133.261 47.9849 138.388C38.7045 134.536 28.6016 139.585 28.6016 139.585L59.1967 150.69C57.6532 146.568 54.9664 142.971 51.4512 140.322Z" fill="#3F3D56"/>
<path d="M579.693 373.322L594.984 361.095C583.105 359.784 578.224 366.262 576.227 371.388C566.946 367.536 556.843 372.585 556.843 372.585L587.438 383.69C585.895 379.568 583.208 375.972 579.693 373.322Z" fill="#3F3D56"/>
<path d="M475.843 899.235L487.53 903.576L509.839 860.572L492.59 854.165L475.843 899.235Z" fill="#FFB7B7"/>
<path d="M474.279 894.312L497.295 902.861L497.296 902.862C501.186 904.307 504.342 907.238 506.071 911.01C507.799 914.782 507.959 919.086 506.513 922.975L506.336 923.451L468.652 909.453L474.279 894.312Z" fill="#2F2E41"/>
<path d="M590.856 911.369L603.324 911.367L609.255 863.288L590.854 863.289L590.856 911.369Z" fill="#FFB7B7"/>
<path d="M588.693 907.299L613.246 907.298H613.247C617.397 907.298 621.376 908.946 624.311 911.88C627.245 914.814 628.894 918.793 628.894 922.942V923.45L588.693 923.451L588.693 907.299Z" fill="#2F2E41"/>
<path d="M533.775 577.916L537.843 569.782L572.419 587.067L571.402 594.184L578.013 602.827C578.013 602.827 589.199 608.927 587.165 629.262L585.131 648.58L582.589 673.49L600.386 735.003L609.538 816.342L616.148 881.922L584.114 880.397L554.623 773.639L502.758 888.531L467.165 879.381L515.979 765.505L522.08 717.718C522.08 717.718 518.013 692.3 537.335 675.015L534.284 665.865V654.588L524.114 600.793L533.775 577.916Z" fill="#2F2E41"/>
<path opacity="0.2" d="M532.825 694.171L531.675 694.496L554.048 773.801L555.198 773.477L532.825 694.171Z" fill="black"/>
<path d="M534.792 678.574H584.623V673.49H534.792V678.574Z" fill="#3F3D56"/>
<path d="M584.623 681.624C585.746 681.624 586.657 679.348 586.657 676.54C586.657 673.733 585.746 671.457 584.623 671.457C583.499 671.457 582.589 673.733 582.589 676.54C582.589 679.348 583.499 681.624 584.623 681.624Z" fill="#3F3D56"/>
<path d="M585.937 553.986C593.117 540.852 588.29 524.385 575.153 517.206C562.017 510.026 545.547 514.853 538.366 527.987C531.185 541.12 536.013 557.587 549.149 564.767C562.285 571.946 578.756 567.119 585.937 553.986Z" fill="#FFB7B7"/>
<path d="M520.67 531.311C533.915 531.311 544.651 520.577 544.651 507.335C544.651 494.094 533.915 483.359 520.67 483.359C507.426 483.359 496.69 494.094 496.69 507.335C496.69 520.577 507.426 531.311 520.67 531.311Z" fill="#2F2E41"/>
<path d="M490.238 504.767C489.292 507.944 489.016 511.282 489.425 514.571C489.835 517.86 490.922 521.029 492.619 523.877C494.315 526.724 496.583 529.19 499.281 531.117C501.978 533.044 505.046 534.391 508.29 535.073C511.534 535.755 514.885 535.756 518.13 535.078C521.375 534.4 524.444 533.057 527.144 531.133C529.843 529.209 532.115 526.747 533.814 523.901C535.514 521.055 536.605 517.888 537.019 514.6C535.3 520.367 531.476 525.278 526.304 528.357C521.132 531.436 514.991 532.458 509.1 531.22C503.209 529.982 498 526.574 494.505 521.674C491.011 516.773 489.488 510.738 490.238 504.767Z" fill="#2F2E41"/>
<path d="M584.977 533.462C585.681 539.659 584.321 545.916 581.107 551.262C577.893 556.608 573.006 560.745 567.202 563.032C561.398 565.32 555.001 565.629 549.004 563.913C543.006 562.197 537.742 558.551 534.027 553.54C530.312 548.529 528.354 542.433 528.456 536.196C528.557 529.96 530.714 523.931 534.591 519.044C538.467 514.157 543.848 510.685 549.898 509.166C555.949 507.647 562.332 508.165 568.058 510.64C572.794 506.822 578.665 508.005 583.439 512.035C588.837 516.592 590.439 519.722 594.625 527.216C590.509 527.794 589.094 532.884 584.977 533.462Z" fill="#2F2E41"/>
<path d="M485.336 614.965C485.639 622.997 486.24 638.806 486.24 639.613C486.24 640.464 498.228 665.28 503.407 675.96V675.965C503.775 676.718 504.106 677.4 504.398 678.002C504.799 678.83 505.428 679.527 506.213 680.009C506.997 680.491 507.903 680.738 508.824 680.72L531.456 680.314C532.7 680.293 533.888 679.792 534.771 678.916C535.654 678.04 536.165 676.857 536.196 675.613L538.721 576.063C538.729 575.734 538.672 575.408 538.552 575.102C538.432 574.796 538.252 574.518 538.023 574.282C537.794 574.047 537.52 573.86 537.217 573.733C536.915 573.605 536.59 573.539 536.261 573.539H507.074C505.841 573.539 504.634 573.887 503.589 574.542C502.545 575.197 501.706 576.134 501.17 577.243L487.161 606.219C485.848 608.941 485.221 611.944 485.336 614.965V614.965Z" fill="#3CD887"/>
<path d="M536.59 668.782C542.397 665.263 547.616 660.854 552.054 655.715C562.367 644.119 568.638 629.491 569.928 614.028C571.078 600.798 568.453 590.964 562.123 584.798C554.078 576.961 543.128 578.1 542.666 578.153L542.175 578.208L534.756 584.484L536.856 586.965L543.494 581.349C545.526 581.247 553.822 581.225 559.882 587.152C565.459 592.606 567.75 601.554 566.69 613.747C565.463 628.47 559.506 642.401 549.71 653.461C545.483 658.348 540.529 662.556 535.021 665.936L536.59 668.782Z" fill="#3CD887"/>
<path d="M494.474 630.961L494.256 632.022L533.802 640.142L534.02 639.081L494.474 630.961Z" fill="#3F3D56"/>
<path d="M520.539 573.517L517.97 636.428L519.053 636.472L521.621 573.561L520.539 573.517Z" fill="#3F3D56"/>
<path d="M485.336 614.965C485.639 622.997 486.24 638.806 486.24 639.613C486.24 640.464 498.228 665.28 503.407 675.96L493.754 619.921C493.38 617.765 492.441 615.747 491.031 614.073C489.621 612.399 487.792 611.129 485.731 610.394C485.407 611.895 485.274 613.431 485.336 614.965Z" fill="#3F3D56"/>
<path d="M544.644 732.407C543.789 731.306 543.187 730.031 542.878 728.672C542.57 727.313 542.563 725.902 542.859 724.54C543.155 723.178 543.745 721.897 544.59 720.788C545.434 719.679 546.511 718.769 547.746 718.121L545.784 696.422L558.682 692.014L561.022 722.696C561.973 724.841 562.104 727.261 561.39 729.496C560.676 731.731 559.166 733.627 557.147 734.824C555.129 736.022 552.741 736.437 550.436 735.991C548.132 735.546 546.071 734.271 544.644 732.407Z" fill="#FFB7B7"/>
<path d="M536.203 601.449C535.951 598.154 536.803 594.869 538.626 592.112C540.448 589.355 543.137 587.284 546.267 586.224C549.028 585.313 552.009 585.315 554.768 586.232C557.72 587.237 560.282 589.145 562.09 591.686C563.899 594.226 564.863 597.271 564.847 600.389L565.814 710.583L542.959 711.411L536.203 601.449Z" fill="#CBCBCB"/>
</g>
<defs>
<clipPath id="clip0">
<rect width="972" height="946" fill="white"/>
</clipPath>
</defs>
</svg>
